<svg xmlns="http://www.w3.org/2000/svg" fill="white" viewBox="0 0 24 24"><path d="M22.46 6c-.77.35-1.6.58-2.46.69a4.3 4.3 0 0 0 1.88-2.37 8.59 8.59 0 0 1-2.72 1.04 4.27 4.27 0 0 0-7.36 3.89A12.12 12.12 0 0 1 3.15 4.6a4.26 4.26 0 0 0 1.32 5.7 4.26 4.26 0 0 1-1.93-.53v.05a4.27 4.27 0 0 0 3.43 4.18 4.26 4.26 0 0 1-1.92.07 4.27 4.27 0 0 0 3.98 2.96 8.57 8.57 0 0 1-5.3 1.83c-.34 0-.67-.02-1-.06a12.1 12.1 0 0 0 6.55 1.92c7.86 0 12.16-6.52 12.16-12.17 0-.19 0-.39-.01-.58A8.65 8.65 0 0 0 22.46 6z"></path></svg>
